<?xml version="1.0" encoding="utf-8"?>
<!-- Generator: Adobe Illustrator 27.7.0, SVG Export Plug-In . SVG Version: 6.00 Build 0)  -->
<svg version="1.1" id="Layer_1" xmlns="http://www.w3.org/2000/svg" xmlns:xlink="http://www.w3.org/1999/xlink" x="0px" y="0px"
	 viewBox="0 0 98 96" style="enable-background:new 0 0 98 96;" xml:space="preserve">
<style type="text/css">
	.st0{fill:#ffa500;}
</style>
<g>
	<g>
		<g>
			<g>
				<path class="st0" d="M4.4,32.5h19.1V94H4.4V32.5z M14,2c6.1,0,11.1,5,11.1,11.1c0,6.1-5,11.1-11.1,11.1c-6.1,0-11.1-5-11.1-11.1
					C2.9,7,7.9,2,14,2"/>
				<path class="st0" d="M35.5,32.5h18.3v8.4h0.3c2.6-4.8,8.8-9.9,18.1-9.9c19.3,0,22.9,12.7,22.9,29.3V94H76V64.1
					c0-7.1-0.1-16.3-9.9-16.3c-9.9,0-11.5,7.8-11.5,15.8V94H35.5L35.5,32.5L35.5,32.5z"/>
			</g>
		</g>
	</g>
</g>
</svg>
