<?xml version="1.0" encoding="UTF-8"?>
<svg id="Layer_1" data-name="Layer 1" xmlns="http://www.w3.org/2000/svg" viewBox="0 0 1755.1792 271.749">
  <defs>
    <style>
      .cls-1 {
        fill: #fff;
      }

      .cls-2 {
        fill: orange;
      }
    </style>
  </defs>
  <path class="cls-1" d="m100.4014,268.501l-3.3467-22.7334c-6.8979,17.3242-20.8936,25.9814-41.9863,25.9814-17.4463,0-30.9854-6.709-40.6167-20.1357C4.8154,238.1914,0,218.1621,0,191.5317c0-53.9111,20.0801-80.8662,60.2407-80.8662,17.8457,0,29.6118,5.3076,35.2925,15.9131V30.7734h-18.5591v-5.8462h76.0615v237.728h14.9082v5.8457h-67.5425Zm-38.335-21.9219c2.2295,7.4697,6.3364,11.2051,12.3218,11.2051,5.9805,0,11.1523-2.8115,15.5166-8.4443,4.3594-5.6279,6.541-13.9648,6.541-25.0068v-70.7988c0-9.3066-1.7256-17.2124-5.1719-23.7075-3.4517-6.4956-8.519-9.7432-15.2124-9.7432s-11.2573,4.7651-13.6909,14.2896c-2.4341,9.5298-3.6514,26.1997-3.6514,50.0137v16.8887c0,22.7324,1.1128,37.834,3.3472,45.3037Z"/>
  <path class="cls-1" d="m248.8726,192.1812h8.8232v-25.0068c0-20.5669-1.0649-34.3691-3.1948-41.4072-2.1294-7.0332-6.2368-10.5552-12.3218-10.5552-3.6509,0-6.9502,1.0303-9.8882,3.0854-2.9424,2.0601-4.4116,4.8716-4.4116,8.4438s.6089,7.2007,1.8257,10.8794h7.606c1.6211,4.5469,2.4341,10.0171,2.4341,16.4009,0,6.3887-2.5386,11.9097-7.606,16.563-5.0723,4.6582-11.4614,6.9824-19.1675,6.9824-17.4468,0-26.1655-8.9819-26.1655-26.9556,0-26.6309,21.1929-39.9458,63.5874-39.9458,24.1353,0,40.8169,4.3843,50.0488,13.1528,9.2271,8.7686,13.8433,24.8442,13.8433,48.2275v65.9268c0,11.2607,2.9375,16.8887,8.8228,16.8887,6.8931,0,10.9531-11.1494,12.1699-33.4512l4.564.3242c-.813,19.0547-4.1597,32.1523-10.04,39.2969-5.8857,7.1445-15.5166,10.7178-28.9038,10.7178-24.3394,0-38.335-8.0078-41.9858-24.0332-2.6382,8.2314-6.5938,14.29-11.8657,18.1875-5.2764,3.8965-12.9824,5.8457-23.1226,5.8457-30.0205,0-45.0283-13.0977-45.0283-39.2969,0-15.3701,5.7285-25.9258,17.1899-31.6646,11.4565-5.7344,29.0552-8.6064,52.7866-8.6064Zm-10.4966,61.7056c1.1123,3.2471,3.2422,4.8711,6.3892,4.8711,3.1426,0,6.085-2.7607,8.8232-8.2812,2.7383-5.5215,4.1074-13.1533,4.1074-22.8955v-30.2036h-2.1299c-12.5786,0-18.8633,9.855-18.8633,29.5532v5.1963c0,11.2607.5562,18.5117,1.6733,21.7598Z"/>
  <path class="cls-1" d="m317.5869,119.7588v-5.8457h90.9697v5.8457h-19.1675l36.5093,107.8223,32.8589-107.8223h-20.3848v-5.8457h41.0732v5.8457l-10.2695.2412-46,149.001-36.8296-.5-56.2856-148.7422h-12.4741Z"/>
  <polygon class="cls-1" points="559.8105 262.6553 559.8105 113.9131 485.2705 113.9131 485.2705 119.7588 503.2207 119.7588 503.2207 262.6553 486.4873 262.6553 486.4873 268.501 576.8481 268.501 576.8481 262.6553 559.8105 262.6553"/>
  <path class="cls-2" d="m515.0784,91.5044c16.2821,0,28.2645-4.2589,35.9488-12.7909,7.6762-8.5253,11.5216-19.9249,11.5216-34.1914s-3.9964-25.2511-11.9832-32.9613c-7.9927-7.702-19.666-11.5608-35.0264-11.5608s-26.8103,4.2656-34.3349,12.7909c-7.5327,8.5319-11.2916,19.3553-11.2916,32.4694,0,13.1208,3.4564,24.1054,10.3692,32.9606,6.9136,8.8559,18.5077,13.2835,34.7964,13.2835Z"/>
  <path class="cls-1" d="m686.373,268.501l-3.3467-22.7334c-6.8979,17.3242-20.8936,25.9814-41.9863,25.9814-17.4463,0-30.9854-6.709-40.6167-20.1357-9.6362-13.4219-14.4517-33.4512-14.4517-60.0815,0-53.9111,20.0801-80.8662,60.2407-80.8662,17.8457,0,29.6118,5.3076,35.2925,15.9131V30.7734h-18.5591v-5.8462h76.0615v237.728h14.9082v5.8457h-67.5425Zm-38.335-21.9219c2.2295,7.4697,6.3364,11.2051,12.3218,11.2051,5.9805,0,11.1523-2.8115,15.5166-8.4443,4.3594-5.6279,6.541-13.9648,6.541-25.0068v-70.7988c0-9.3066-1.7256-17.2124-5.1719-23.7075-3.4517-6.4956-8.519-9.7432-15.2124-9.7432s-11.2573,4.7651-13.6909,14.2896c-2.4341,9.5298-3.6514,26.1997-3.6514,50.0137v16.8887c0,22.7324,1.1128,37.834,3.3472,45.3037Z"/>
  <path class="cls-1" d="m815.3696,24.9272h74.541v237.728h17.0371v5.8457h-90.3613v-5.8457h16.7344V30.7734h-17.9512v-5.8462Z"/>
  <path class="cls-1" d="m985.7466,192.1812h8.8232v-25.0068c0-20.5669-1.0654-34.3691-3.1943-41.4072-2.1299-7.0332-6.2373-10.5552-12.3223-10.5552-3.6514,0-6.9502,1.0303-9.8877,3.0854-2.9434,2.0601-4.4121,4.8716-4.4121,8.4438s.6084,7.2007,1.8252,10.8794h7.6064c1.6211,4.5469,2.4346,10.0171,2.4346,16.4009,0,6.3887-2.5391,11.9097-7.6064,16.563-5.0723,4.6582-11.4619,6.9824-19.168,6.9824-17.4463,0-26.165-8.9819-26.165-26.9556,0-26.6309,21.1924-39.9458,63.5879-39.9458,24.1348,0,40.8164,4.3843,50.0479,13.1528,9.2275,8.7686,13.8438,24.8442,13.8438,48.2275v65.9268c0,11.2607,2.9375,16.8887,8.8232,16.8887,6.8926,0,10.9521-11.1494,12.1699-33.4512l4.5635.3242c-.8135,19.0547-4.1602,32.1523-10.04,39.2969-5.8857,7.1445-15.5166,10.7178-28.9033,10.7178-24.3398,0-38.335-8.0078-41.9863-24.0332-2.6387,8.2314-6.5938,14.29-11.8652,18.1875-5.2773,3.8965-12.9834,5.8457-23.123,5.8457-30.0205,0-45.0283-13.0977-45.0283-39.2969,0-15.3701,5.7285-25.9258,17.1895-31.6646,11.457-5.7344,29.0557-8.6064,52.7871-8.6064Zm-10.4961,61.7056c1.1123,3.2471,3.2422,4.8711,6.3887,4.8711,3.1426,0,6.085-2.7607,8.8232-8.2812,2.7383-5.5215,4.1074-13.1533,4.1074-22.8955v-30.2036h-2.1299c-12.5791,0-18.8633,9.855-18.8633,29.5532v5.1963c0,11.2607.5566,18.5117,1.6738,21.7598Z"/>
  <path class="cls-1" d="m1198.4126,44.0884c-31.4414,0-47.1582,32.3701-47.1582,97.105v25.6562c0,30.7461,4.1553,54.835,12.4746,72.2598,8.3145,17.4307,20.584,26.1436,36.8135,26.1436,22.3096,0,42.7939-23.1641,61.458-69.499h5.4766l-2.1299,72.4219h-3.3467c-1.2168-2.3799-2.334-4.0596-3.3467-5.0332-1.0176-.9746-2.4863-1.4619-4.4121-1.4619-1.9297,0-9.2793,1.6797-22.0576,5.0342s-25.7607,5.0342-38.9434,5.0342c-33.0635,0-58.6719-9.5254-76.8223-28.5801-18.1553-19.0488-27.2305-47.6841-27.2305-85.8999s9.4795-67.7134,28.4473-88.4985c18.9629-20.7847,44.4678-31.1772,76.5186-31.1772,12.3691,0,24.4912,1.6797,36.3574,5.0337,11.8652,3.3594,18.8105,5.0342,20.8408,5.0342,2.0244,0,3.5459-.4873,4.5635-1.4614,1.0127-.9746,2.1299-2.6489,3.3467-5.0342h3.3467l2.4336,70.4741h-5.4766c-9.127-21.8657-18.5107-38.5913-28.1426-50.1763-9.6357-11.5796-20.6406-17.375-33.0107-17.375Z"/>
  <path class="cls-1" d="m1362.7026,192.1812h8.8232v-25.0068c0-20.5669-1.0654-34.3691-3.1943-41.4072-2.1299-7.0332-6.2373-10.5552-12.3223-10.5552-3.6514,0-6.9502,1.0303-9.8877,3.0854-2.9434,2.0601-4.4121,4.8716-4.4121,8.4438s.6084,7.2007,1.8252,10.8794h7.6064c1.6211,4.5469,2.4346,10.0171,2.4346,16.4009,0,6.3887-2.5391,11.9097-7.6064,16.563-5.0723,4.6582-11.4619,6.9824-19.168,6.9824-17.4463,0-26.165-8.9819-26.165-26.9556,0-26.6309,21.1924-39.9458,63.5879-39.9458,24.1348,0,40.8164,4.3843,50.0479,13.1528,9.2275,8.7686,13.8438,24.8442,13.8438,48.2275v65.9268c0,11.2607,2.9375,16.8887,8.8232,16.8887,6.8926,0,10.9521-11.1494,12.1699-33.4512l4.5635.3242c-.8135,19.0547-4.1602,32.1523-10.04,39.2969-5.8857,7.1445-15.5166,10.7178-28.9033,10.7178-24.3398,0-38.335-8.0078-41.9863-24.0332-2.6387,8.2314-6.5938,14.29-11.8652,18.1875-5.2773,3.8965-12.9834,5.8457-23.123,5.8457-30.0205,0-45.0283-13.0977-45.0283-39.2969,0-15.3701,5.7285-25.9258,17.1895-31.6646,11.457-5.7344,29.0557-8.6064,52.7871-8.6064Zm-10.4961,61.7056c1.1123,3.2471,3.2422,4.8711,6.3887,4.8711,3.1426,0,6.085-2.7607,8.8232-8.2812,2.7383-5.5215,4.1074-13.1533,4.1074-22.8955v-30.2036h-2.1299c-12.5791,0-18.8633,9.855-18.8633,29.5532v5.1963c0,11.2607.5566,18.5117,1.6738,21.7598Z"/>
  <path class="cls-1" d="m1435.4165,119.7588v-5.8457h90.9697v5.8457h-19.168l36.5098,107.8223,32.8584-107.8223h-20.3838v-5.8457h41.0732v5.8457l-10.0996.2412-46,149.001-37-.5-56.2861-148.7422h-12.4736Z"/>
  <path class="cls-1" d="m1664.2095,192.1812h8.8232v-25.0068c0-20.5669-1.0654-34.3691-3.1943-41.4072-2.1299-7.0332-6.2373-10.5552-12.3223-10.5552-3.6514,0-6.9502,1.0303-9.8877,3.0854-2.9434,2.0601-4.4121,4.8716-4.4121,8.4438s.6084,7.2007,1.8252,10.8794h7.6064c1.6211,4.5469,2.4346,10.0171,2.4346,16.4009,0,6.3887-2.5391,11.9097-7.6064,16.563-5.0723,4.6582-11.4619,6.9824-19.168,6.9824-17.4463,0-26.165-8.9819-26.165-26.9556,0-26.6309,21.1924-39.9458,63.5879-39.9458,24.1348,0,40.8164,4.3843,50.0479,13.1528,9.2275,8.7686,13.8438,24.8442,13.8438,48.2275v65.9268c0,11.2607,2.9375,16.8887,8.8232,16.8887,6.8926,0,10.9521-11.1494,12.1699-33.4512l4.5635.3242c-.8135,19.0547-4.1602,32.1523-10.04,39.2969-5.8857,7.1445-15.5166,10.7178-28.9033,10.7178-24.3398,0-38.335-8.0078-41.9863-24.0332-2.6387,8.2314-6.5938,14.29-11.8652,18.1875-5.2773,3.8965-12.9834,5.8457-23.123,5.8457-30.0205,0-45.0283-13.0977-45.0283-39.2969,0-15.3701,5.7285-25.9258,17.1895-31.6646,11.457-5.7344,29.0557-8.6064,52.7871-8.6064Zm-10.4961,61.7056c1.1123,3.2471,3.2422,4.8711,6.3887,4.8711,3.1426,0,6.085-2.7607,8.8232-8.2812,2.7383-5.5215,4.1074-13.1533,4.1074-22.8955v-30.2036h-2.1299c-12.5791,0-18.8633,9.855-18.8633,29.5532v5.1963c0,11.2607.5566,18.5117,1.6738,21.7598Z"/>
</svg>