<?xml version="1.0" encoding="UTF-8"?>
<svg id="Layer_1" data-name="Layer 1" xmlns="http://www.w3.org/2000/svg" viewBox="0 0 1755.18 271.75">
  <defs>
    <style>
      .cls-1 {
        fill: #fff;
      }

      .cls-2 {
        fill: orange;
      }
    </style>
  </defs>
  <path class="cls-1" d="m100.4,268.5l-3.35-22.73c-6.9,17.32-20.89,25.98-41.99,25.98-17.45,0-30.99-6.71-40.62-20.14C4.82,238.19,0,218.16,0,191.53c0-53.91,20.08-80.87,60.24-80.87,17.85,0,29.61,5.31,35.29,15.91V30.77h-18.56v-5.85h76.06v237.73h14.91v5.85h-67.54Zm-38.33-21.92c2.23,7.47,6.34,11.21,12.32,11.21s11.15-2.81,15.52-8.44c4.36-5.63,6.54-13.96,6.54-25.01v-70.8c0-9.31-1.73-17.21-5.17-23.71-3.45-6.5-8.52-9.74-15.21-9.74s-11.26,4.77-13.69,14.29c-2.43,9.53-3.65,26.2-3.65,50.01v16.89c0,22.73,1.11,37.83,3.35,45.3Z"/>
  <path class="cls-1" d="m248.87,192.18h8.82v-25.01c0-20.57-1.06-34.37-3.19-41.41-2.13-7.03-6.24-10.56-12.32-10.56-3.65,0-6.95,1.03-9.89,3.09-2.94,2.06-4.41,4.87-4.41,8.44s.61,7.2,1.83,10.88h7.61c1.62,4.55,2.43,10.02,2.43,16.4s-2.54,11.91-7.61,16.56c-5.07,4.66-11.46,6.98-19.17,6.98-17.45,0-26.17-8.98-26.17-26.96,0-26.63,21.19-39.95,63.59-39.95,24.14,0,40.82,4.38,50.05,13.15,9.23,8.77,13.84,24.84,13.84,48.23v65.93c0,11.26,2.94,16.89,8.82,16.89,6.89,0,10.95-11.15,12.17-33.45l4.56.32c-.81,19.05-4.16,32.15-10.04,39.3-5.89,7.14-15.52,10.72-28.9,10.72-24.34,0-38.33-8.01-41.99-24.03-2.64,8.23-6.59,14.29-11.87,18.19-5.28,3.9-12.98,5.85-23.12,5.85-30.02,0-45.03-13.1-45.03-39.3,0-15.37,5.73-25.93,17.19-31.66,11.46-5.73,29.06-8.61,52.79-8.61Zm-10.5,61.71c1.11,3.25,3.24,4.87,6.39,4.87s6.08-2.76,8.82-8.28c2.74-5.52,4.11-13.15,4.11-22.9v-30.2h-2.13c-12.58,0-18.86,9.85-18.86,29.55v5.2c0,11.26.56,18.51,1.67,21.76Z"/>
  <path class="cls-1" d="m317.59,119.76v-5.85h90.97v5.85h-19.17l36.51,107.82,32.86-107.82h-20.38v-5.85h41.07v5.85l-10.27.24-46,149-36.83-.5-56.29-148.74h-12.47Z"/>
  <polygon class="cls-1" points="559.81 262.66 559.81 113.91 485.27 113.91 485.27 119.76 503.22 119.76 503.22 262.66 486.49 262.66 486.49 268.5 576.85 268.5 576.85 262.66 559.81 262.66"/>
  <path class="cls-2" d="m515.08,91.5c16.28,0,28.26-4.26,35.95-12.79,7.68-8.53,11.52-19.92,11.52-34.19s-4-25.25-11.98-32.96c-7.99-7.7-19.67-11.56-35.03-11.56s-26.81,4.27-34.33,12.79c-7.53,8.53-11.29,19.36-11.29,32.47s3.46,24.11,10.37,32.96c6.91,8.86,18.51,13.28,34.8,13.28Z"/>
  <path class="cls-1" d="m686.37,268.5l-3.35-22.73c-6.9,17.32-20.89,25.98-41.99,25.98-17.45,0-30.99-6.71-40.62-20.14-9.64-13.42-14.45-33.45-14.45-60.08,0-53.91,20.08-80.87,60.24-80.87,17.85,0,29.61,5.31,35.29,15.91V30.77h-18.56v-5.85h76.06v237.73h14.91v5.85h-67.54Zm-38.33-21.92c2.23,7.47,6.34,11.21,12.32,11.21s11.15-2.81,15.52-8.44c4.36-5.63,6.54-13.96,6.54-25.01v-70.8c0-9.31-1.73-17.21-5.17-23.71-3.45-6.5-8.52-9.74-15.21-9.74s-11.26,4.77-13.69,14.29c-2.43,9.53-3.65,26.2-3.65,50.01v16.89c0,22.73,1.11,37.83,3.35,45.3Z"/>
  <path class="cls-1" d="m815.37,24.93h74.54v237.73h17.04v5.85h-90.36v-5.85h16.73V30.77h-17.95v-5.85Z"/>
  <path class="cls-1" d="m985.75,192.18h8.82v-25.01c0-20.57-1.07-34.37-3.19-41.41-2.13-7.03-6.24-10.56-12.32-10.56-3.65,0-6.95,1.03-9.89,3.09-2.94,2.06-4.41,4.87-4.41,8.44s.61,7.2,1.83,10.88h7.61c1.62,4.55,2.43,10.02,2.43,16.4s-2.54,11.91-7.61,16.56c-5.07,4.66-11.46,6.98-19.17,6.98-17.45,0-26.17-8.98-26.17-26.96,0-26.63,21.19-39.95,63.59-39.95,24.13,0,40.82,4.38,50.05,13.15,9.23,8.77,13.84,24.84,13.84,48.23v65.93c0,11.26,2.94,16.89,8.82,16.89,6.89,0,10.95-11.15,12.17-33.45l4.56.32c-.81,19.05-4.16,32.15-10.04,39.3-5.89,7.14-15.52,10.72-28.9,10.72-24.34,0-38.33-8.01-41.99-24.03-2.64,8.23-6.59,14.29-11.87,18.19-5.28,3.9-12.98,5.85-23.12,5.85-30.02,0-45.03-13.1-45.03-39.3,0-15.37,5.73-25.93,17.19-31.66,11.46-5.73,29.06-8.61,52.79-8.61Zm-10.5,61.71c1.11,3.25,3.24,4.87,6.39,4.87s6.08-2.76,8.82-8.28c2.74-5.52,4.11-13.15,4.11-22.9v-30.2h-2.13c-12.58,0-18.86,9.85-18.86,29.55v5.2c0,11.26.56,18.51,1.67,21.76Z"/>
  <path class="cls-1" d="m1198.41,44.09c-31.44,0-47.16,32.37-47.16,97.1v25.66c0,30.75,4.16,54.83,12.47,72.26,8.31,17.43,20.58,26.14,36.81,26.14,22.31,0,42.79-23.16,61.46-69.5h5.48l-2.13,72.42h-3.35c-1.22-2.38-2.33-4.06-3.35-5.03-1.02-.97-2.49-1.46-4.41-1.46s-9.28,1.68-22.06,5.03-25.76,5.03-38.94,5.03c-33.06,0-58.67-9.53-76.82-28.58-18.16-19.05-27.23-47.68-27.23-85.9s9.48-67.71,28.45-88.5c18.96-20.78,44.47-31.18,76.52-31.18,12.37,0,24.49,1.68,36.36,5.03,11.87,3.36,18.81,5.03,20.84,5.03s3.55-.49,4.56-1.46c1.01-.97,2.13-2.65,3.35-5.03h3.35l2.43,70.47h-5.48c-9.13-21.87-18.51-38.59-28.14-50.18-9.64-11.58-20.64-17.38-33.01-17.38Z"/>
  <path class="cls-1" d="m1362.7,192.18h8.82v-25.01c0-20.57-1.07-34.37-3.19-41.41-2.13-7.03-6.24-10.56-12.32-10.56-3.65,0-6.95,1.03-9.89,3.09-2.94,2.06-4.41,4.87-4.41,8.44s.61,7.2,1.83,10.88h7.61c1.62,4.55,2.43,10.02,2.43,16.4s-2.54,11.91-7.61,16.56c-5.07,4.66-11.46,6.98-19.17,6.98-17.45,0-26.17-8.98-26.17-26.96,0-26.63,21.19-39.95,63.59-39.95,24.13,0,40.82,4.38,50.05,13.15,9.23,8.77,13.84,24.84,13.84,48.23v65.93c0,11.26,2.94,16.89,8.82,16.89,6.89,0,10.95-11.15,12.17-33.45l4.56.32c-.81,19.05-4.16,32.15-10.04,39.3-5.89,7.14-15.52,10.72-28.9,10.72-24.34,0-38.33-8.01-41.99-24.03-2.64,8.23-6.59,14.29-11.87,18.19-5.28,3.9-12.98,5.85-23.12,5.85-30.02,0-45.03-13.1-45.03-39.3,0-15.37,5.73-25.93,17.19-31.66,11.46-5.73,29.06-8.61,52.79-8.61Zm-10.5,61.71c1.11,3.25,3.24,4.87,6.39,4.87s6.08-2.76,8.82-8.28c2.74-5.52,4.11-13.15,4.11-22.9v-30.2h-2.13c-12.58,0-18.86,9.85-18.86,29.55v5.2c0,11.26.56,18.51,1.67,21.76Z"/>
  <path class="cls-1" d="m1435.42,119.76v-5.85h90.97v5.85h-19.17l36.51,107.82,32.86-107.82h-20.38v-5.85h41.07v5.85l-10.1.24-46,149-37-.5-56.29-148.74h-12.47Z"/>
  <path class="cls-1" d="m1664.21,192.18h8.82v-25.01c0-20.57-1.07-34.37-3.19-41.41-2.13-7.03-6.24-10.56-12.32-10.56-3.65,0-6.95,1.03-9.89,3.09-2.94,2.06-4.41,4.87-4.41,8.44s.61,7.2,1.83,10.88h7.61c1.62,4.55,2.43,10.02,2.43,16.4s-2.54,11.91-7.61,16.56c-5.07,4.66-11.46,6.98-19.17,6.98-17.45,0-26.17-8.98-26.17-26.96,0-26.63,21.19-39.95,63.59-39.95,24.13,0,40.82,4.38,50.05,13.15,9.23,8.77,13.84,24.84,13.84,48.23v65.93c0,11.26,2.94,16.89,8.82,16.89,6.89,0,10.95-11.15,12.17-33.45l4.56.32c-.81,19.05-4.16,32.15-10.04,39.3-5.89,7.14-15.52,10.72-28.9,10.72-24.34,0-38.33-8.01-41.99-24.03-2.64,8.23-6.59,14.29-11.87,18.19-5.28,3.9-12.98,5.85-23.12,5.85-30.02,0-45.03-13.1-45.03-39.3,0-15.37,5.73-25.93,17.19-31.66,11.46-5.73,29.06-8.61,52.79-8.61Zm-10.5,61.71c1.11,3.25,3.24,4.87,6.39,4.87s6.08-2.76,8.82-8.28c2.74-5.52,4.11-13.15,4.11-22.9v-30.2h-2.13c-12.58,0-18.86,9.85-18.86,29.55v5.2c0,11.26.56,18.51,1.67,21.76Z"/>
</svg>