<?xml version="1.0" encoding="UTF-8"?>
<svg id="Layer_1" data-name="Layer 1" xmlns="http://www.w3.org/2000/svg" viewBox="0 0 251.85205078 30.06384104">
  <defs>
    <style>
      .cls-1 {
        fill: #fff;
      }

      .cls-2 {
        fill: orange;
      }
    </style>
  </defs>
  <path class="cls-1" d="m16.45214844,6.08776682c1.99169922,1.05615234,3.53369141,2.53808594,4.62597656,4.44580078,1.09179688,1.90820312,1.63818359,4.11035156,1.63818359,6.60595703,0,2.47265625-.54638672,4.66845703-1.63818359,6.58837891-1.09228516,1.92041016-2.640625,3.40820312-4.64404297,4.46386719-2.00439453,1.05615234-4.32617188,1.58398438-6.96582031,1.58398438H0V4.50378244h9.46826172c2.66357422,0,4.99121094.52832031,6.98388672,1.58398438Zm-1.94384766,16.45214844c1.29589844-1.27197266,1.94384766-3.07177734,1.94384766-5.40039062,0-2.32763672-.64794922-4.13964844-1.94384766-5.43554688-1.29638672-1.29638672-3.10839844-1.94433594-5.43603516-1.94433594h-2.91601562v14.68798828h2.91601562c2.32763672,0,4.13964844-.63574219,5.43603516-1.90771484Z"/>
  <path class="cls-1" d="m26.11816406,14.25964182c.77929688-1.55957031,1.84130859-2.75927734,3.18554688-3.60009766,1.34423828-.83984375,2.84423828-1.25976562,4.5-1.25976562,1.41601562,0,2.65820312.28808594,3.72607422.86376953,1.06787109.57617188,1.89013672,1.33203125,2.46630859,2.26806641v-2.84375h6.15576172v20.08789062h-6.15576172v-2.84423828c-.60009766.93603516-1.43457031,1.69238281-2.50195312,2.26806641-1.06835938.57617188-2.31054688.86425781-3.72607422.86425781-1.63232422,0-3.12011719-.42578125-4.46435547-1.27832031-1.34423828-.8515625-2.40625-2.06347656-3.18554688-3.63574219-.78027344-1.57177734-1.17041016-3.38964844-1.17041016-5.45410156,0-2.06396484.39013672-3.87548828,1.17041016-5.43603516Zm12.59960938,1.8359375c-.85205078-.88720703-1.88964844-1.33203125-3.11376953-1.33203125s-2.26220703.43847656-3.11425781,1.31396484c-.85205078.87646484-1.27783203,2.08251953-1.27783203,3.61816406,0,1.53613281.42578125,2.75390625,1.27783203,3.65429688.85205078.89990234,1.89013672,1.34960938,3.11425781,1.34960938s2.26171875-.44384766,3.11376953-1.33203125c.8515625-.88720703,1.27832031-2.09960938,1.27832031-3.63574219,0-1.53564453-.42675781-2.74804688-1.27832031-3.63623047Z"/>
  <path class="cls-1" d="m59.65136719,24.01598947l4.35595703-14.328125h6.55175781l-7.12792969,20.08789062h-7.59570312l-7.12792969-20.08789062h6.58789062l4.35595703,14.328125Z"/>
  <path class="cls-2" d="m74.73402912,7.59997385c1.20462929,0,2.1975291-.36272602,2.97814224-1.08873526.78061315-.72545205,1.17064113-1.62251641,1.17064113-2.6906359,0-1.09542145-.39002798-2.0058582-1.17064113-2.73186743-.78061315-.72545205-1.77351296-1.08873526-2.97814224-1.08873526-1.23248843,0-2.23876062.36328321-3.01937377,1.08873526-.78061315.72600923-1.17119832,1.63644598-1.17119832,2.73186743,0,1.06811949.39058517,1.96518385,1.17119832,2.6906359.78061315.72600923,1.78688535,1.08873526,3.01937377,1.08873526Z"/>
  <rect class="cls-1" x="73.15087891" y="9.68786447" width="6.15625" height="20.08789062"/>
  <path class="cls-1" d="m97.59472656,3.13561838v9.32421875c-.62451172-.93603516-1.48242188-1.6796875-2.57421875-2.23193359-1.09228516-.55175781-2.29833984-.828125-3.61816406-.828125-1.65576172,0-3.15576172.41992188-4.5,1.25976562-1.34423828.84082031-2.40625,2.04052734-3.18554688,3.60009766-.78027344,1.56054688-1.17041016,3.37207031-1.17041016,5.43603516,0,2.06445312.39013672,3.88232422,1.17041016,5.45410156.77929688,1.57226562,1.84130859,2.78417969,3.18554688,3.63574219,1.34423828.85253906,2.84423828,1.27832031,4.5,1.27832031,1.41601562,0,2.65820312-.28808594,3.72607422-.86425781,1.06787109-.57568359,1.89013672-1.34375,2.46630859-2.30371094v2.87988281h6.15576172V3.13561838h-6.15576172Zm-1.27832031,20.23193359c-.85205078.88818359-1.88964844,1.33203125-3.11376953,1.33203125s-2.26220703-.44970703-3.11425781-1.34960938c-.85205078-.90039062-1.27783203-2.11816406-1.27783203-3.65429688,0-1.53564453.42578125-2.74169922,1.27783203-3.61816406.85205078-.87548828,1.89013672-1.31396484,3.11425781-1.31396484s2.26171875.44482422,3.11376953,1.33203125c.8515625.88818359,1.27832031,2.10058594,1.27832031,3.63623047,0,1.53613281-.42675781,2.74853516-1.27832031,3.63574219Z"/>
  <path class="cls-1" d="m122.00195312,25.02380197h8.06396484v4.75195312h-14.22021484V4.50378244h6.15625v20.52001953Z"/>
  <path class="cls-1" d="m132.96386719,14.25964182c.77929688-1.55957031,1.84130859-2.75927734,3.18554688-3.60009766,1.34423828-.83984375,2.84423828-1.25976562,4.5-1.25976562,1.41601562,0,2.65820312.28808594,3.72607422.86376953,1.06787109.57617188,1.89013672,1.33203125,2.46630859,2.26806641v-2.84375h6.15576172v20.08789062h-6.15576172v-2.84423828c-.60009766.93603516-1.43457031,1.69238281-2.50195312,2.26806641-1.06835938.57617188-2.31054688.86425781-3.72607422.86425781-1.63232422,0-3.12011719-.42578125-4.46435547-1.27832031-1.34423828-.8515625-2.40625-2.06347656-3.18554688-3.63574219-.78027344-1.57177734-1.17041016-3.38964844-1.17041016-5.45410156,0-2.06396484.39013672-3.87548828,1.17041016-5.43603516Zm12.59960938,1.8359375c-.85205078-.88720703-1.88964844-1.33203125-3.11376953-1.33203125s-2.26220703.43847656-3.11425781,1.31396484c-.85205078.87646484-1.27783203,2.08251953-1.27783203,3.61816406,0,1.53613281.42578125,2.75390625,1.27783203,3.65429688.85205078.89990234,1.89013672,1.34960938,3.11425781,1.34960938s2.26171875-.44384766,3.11376953-1.33203125c.8515625-.88720703,1.27832031-2.09960938,1.27832031-3.63574219,0-1.53564453-.42675781-2.74804688-1.27832031-3.63623047Z"/>
  <path class="cls-1" d="m158.03710938,10.42565744c1.08007812-1.95556641,2.5859375-3.47949219,4.51806641-4.57177734,1.93164062-1.09179688,4.12207031-1.63818359,6.56982422-1.63818359,3,0,5.56787109.79199219,7.70410156,2.37597656,2.13574219,1.58398438,3.56396484,3.74414062,4.28369141,6.47998047h-6.76757812c-.50439453-1.05566406-1.21875-1.859375-2.14208984-2.41210938-.92431641-.55175781-1.97460938-.82763672-3.14990234-.82763672-1.89648438,0-3.43261719.66015625-4.60839844,1.97998047s-1.76367188,3.08398438-1.76367188,5.29199219.58789062,3.97216797,1.76367188,5.29199219c1.17578125,1.3203125,2.71191406,1.97998047,4.60839844,1.97998047,1.17529297,0,2.22558594-.27587891,3.14990234-.828125.92333984-.55175781,1.63769531-1.35546875,2.14208984-2.41210938h6.76757812c-.71972656,2.73632812-2.14794922,4.890625-4.28369141,6.46191406-2.13623047,1.57226562-4.70410156,2.35839844-7.70410156,2.35839844-2.44775391,0-4.63818359-.54589844-6.56982422-1.63818359-1.93212891-1.09179688-3.43798828-2.60986328-4.51806641-4.55419922-1.08007812-1.94384766-1.62011719-4.16357422-1.62011719-6.65966797s.54003906-4.72167969,1.62011719-6.67822266Z"/>
  <path class="cls-1" d="m184.83886719,14.25964182c.77929688-1.55957031,1.84130859-2.75927734,3.18554688-3.60009766,1.34423828-.83984375,2.84423828-1.25976562,4.5-1.25976562,1.41601562,0,2.65820312.28808594,3.72607422.86376953,1.06787109.57617188,1.89013672,1.33203125,2.46630859,2.26806641v-2.84375h6.15576172v20.08789062h-6.15576172v-2.84423828c-.60009766.93603516-1.43457031,1.69238281-2.50195312,2.26806641-1.06835938.57617188-2.31054688.86425781-3.72607422.86425781-1.63232422,0-3.12011719-.42578125-4.46435547-1.27832031-1.34423828-.8515625-2.40625-2.06347656-3.18554688-3.63574219-.78027344-1.57177734-1.17041016-3.38964844-1.17041016-5.45410156,0-2.06396484.39013672-3.87548828,1.17041016-5.43603516Zm12.59960938,1.8359375c-.85205078-.88720703-1.88964844-1.33203125-3.11376953-1.33203125s-2.26220703.43847656-3.11425781,1.31396484c-.85205078.87646484-1.27783203,2.08251953-1.27783203,3.61816406,0,1.53613281.42578125,2.75390625,1.27783203,3.65429688.85205078.89990234,1.89013672,1.34960938,3.11425781,1.34960938s2.26171875-.44384766,3.11376953-1.33203125c.8515625-.88720703,1.27832031-2.09960938,1.27832031-3.63574219,0-1.53564453-.42675781-2.74804688-1.27832031-3.63623047Z"/>
  <path class="cls-1" d="m218.37255859,24.01598947l4.35595703-14.328125h6.55175781l-7.12792969,20.08789062h-7.59570312l-7.12792969-20.08789062h6.58789062l4.35595703,14.328125Z"/>
  <path class="cls-1" d="m231.81835938,14.25964182c.77929688-1.55957031,1.84130859-2.75927734,3.18554688-3.60009766,1.34423828-.83984375,2.84423828-1.25976562,4.5-1.25976562,1.41601562,0,2.65820312.28808594,3.72607422.86376953,1.06787109.57617188,1.89013672,1.33203125,2.46630859,2.26806641v-2.84375h6.15576172v20.08789062h-6.15576172v-2.84423828c-.60009766.93603516-1.43457031,1.69238281-2.50195312,2.26806641-1.06835938.57617188-2.31054688.86425781-3.72607422.86425781-1.63232422,0-3.12011719-.42578125-4.46435547-1.27832031-1.34423828-.8515625-2.40625-2.06347656-3.18554688-3.63574219-.78027344-1.57177734-1.17041016-3.38964844-1.17041016-5.45410156,0-2.06396484.39013672-3.87548828,1.17041016-5.43603516Zm12.59960938,1.8359375c-.85205078-.88720703-1.88964844-1.33203125-3.11376953-1.33203125s-2.26220703.43847656-3.11425781,1.31396484c-.85205078.87646484-1.27783203,2.08251953-1.27783203,3.61816406,0,1.53613281.42578125,2.75390625,1.27783203,3.65429688.85205078.89990234,1.89013672,1.34960938,3.11425781,1.34960938s2.26171875-.44384766,3.11376953-1.33203125c.8515625-.88720703,1.27832031-2.09960938,1.27832031-3.63574219,0-1.53564453-.42675781-2.74804688-1.27832031-3.63623047Z"/>
</svg>