<?xml version="1.0" encoding="UTF-8"?>
<svg id="Layer_1" data-name="Layer 1" xmlns="http://www.w3.org/2000/svg" viewBox="0 0 284.1883 44">
  <defs>
    <style>
      .cls-1 {
        fill: #fff;
      }

      .cls-2 {
        fill: orange;
      }
    </style>
  </defs>
  <path class="cls-1" d="m16.2564,43.4741l-.5419-3.6809c-1.1169,2.805-3.383,4.2068-6.7982,4.2068-2.8248,0-5.017-1.0863-6.5764-3.2603-1.5602-2.1732-2.3399-5.4162-2.3399-9.728,0-8.729,3.2512-13.0934,9.7538-13.0934,2.8895,0,4.7946.8594,5.7144,2.5766V4.9827h-3.005v-.9466h12.3154v38.4915h2.4138v.9465h-10.9361Zm-6.207-3.5495c.361,1.2095,1.026,1.8143,1.9951,1.8143.9683,0,1.8057-.4552,2.5124-1.3673.7058-.9112,1.0591-2.2611,1.0591-4.049v-11.4633c0-1.5069-.2794-2.7869-.8374-3.8386-.5589-1.0517-1.3794-1.5776-2.4631-1.5776s-1.8227.7715-2.2168,2.3137c-.3941,1.543-.5912,4.2421-.5912,8.0979v2.7345c0,3.6807.1802,6.1259.542,7.3353Z"/>
  <path class="cls-1" d="m40.296,31.1168h1.4286v-4.049c0-3.3301-.1724-5.5648-.5173-6.7044-.3448-1.1388-1.0098-1.709-1.9951-1.709-.5911,0-1.1253.1668-1.601.4996-.4764.3336-.7143.7888-.7143,1.3672s.0986,1.1659.2956,1.7615h1.2315c.2625.7362.3941,1.6219.3941,2.6555,0,1.0344-.411,1.9283-1.2315,2.6818-.8213.7542-1.8558,1.1306-3.1035,1.1306-2.8249,0-4.2366-1.4543-4.2366-4.3645,0-4.3119,3.4314-6.4678,10.2957-6.4678,3.9078,0,6.6088.7099,8.1036,2.1296,1.494,1.4198,2.2414,4.0226,2.2414,7.8087v10.6745c0,1.8233.4756,2.7345,1.4285,2.7345,1.1161,0,1.7735-1.8052,1.9705-5.4162l.739.0525c-.1316,3.0852-.6735,5.2059-1.6256,6.3627-.953,1.1568-2.5124,1.7354-4.6799,1.7354-3.9409,0-6.207-1.2966-6.7981-3.8913-.4272,1.3328-1.0676,2.3138-1.9212,2.9448-.8543.6309-2.102.9465-3.7439.9465-4.8607,0-7.2907-2.1207-7.2907-6.3627,0-2.4886.9275-4.1977,2.7833-5.1269,1.855-.9285,4.7044-1.3935,8.5469-1.3935Zm-1.6995,9.991c.1801.5257.525.7887,1.0345.7887.5088,0,.9852-.447,1.4286-1.3409.4434-.894.665-2.1297.665-3.7071v-4.8904h-.3449c-2.0367,0-3.0542,1.5957-3.0542,4.7851v.8414c0,1.8233.09,2.9973.2709,3.5232Z"/>
  <path class="cls-1" d="m51.4218,19.3906v-.9465h14.7293v.9465h-3.1035l5.9114,17.4579,5.3203-17.4579h-3.3006v-.9465h6.6503v.9465l-1.6628.0391-7.448,24.1254-5.9632-.081-9.1134-24.0835h-2.0197Z"/>
  <polygon class="cls-1" points="90.6412 42.5276 90.6412 18.4441 78.5721 18.4441 78.5721 19.3906 81.4785 19.3906 81.4785 42.5276 78.7692 42.5276 78.7692 43.4741 93.3999 43.4741 93.3999 42.5276 90.6412 42.5276"/>
  <path class="cls-2" d="m83.3985,14.8159c2.6363,0,4.5764-.6896,5.8206-2.071,1.2429-1.3804,1.8655-3.2261,1.8655-5.5361s-.6471-4.0885-1.9402-5.3369c-1.2941-1.2471-3.1842-1.8719-5.6713-1.8719s-4.341.6907-5.5593,2.071c-1.2196,1.3814-1.8283,3.1339-1.8283,5.2573,0,2.1244.5596,3.903,1.6789,5.3368,1.1194,1.4339,2.9967,2.1508,5.634,2.1508Z"/>
  <path class="cls-1" d="m111.1335,43.4741l-.5419-3.6809c-1.1169,2.805-3.383,4.2068-6.7982,4.2068-2.8248,0-5.017-1.0863-6.5764-3.2603-1.5602-2.1732-2.3399-5.4162-2.3399-9.728,0-8.729,3.2512-13.0934,9.7538-13.0934,2.8895,0,4.7946.8594,5.7144,2.5766V4.9827h-3.005v-.9466h12.3154v38.4915h2.4138v.9465h-10.9361Zm-6.207-3.5495c.361,1.2095,1.026,1.8143,1.9951,1.8143.9683,0,1.8057-.4552,2.5124-1.3673.7058-.9112,1.0591-2.2611,1.0591-4.049v-11.4633c0-1.5069-.2794-2.7869-.8374-3.8386-.5589-1.0517-1.3794-1.5776-2.4631-1.5776s-1.8227.7715-2.2168,2.3137c-.3941,1.543-.5912,4.2421-.5912,8.0979v2.7345c0,3.6807.1802,6.1259.542,7.3353Z"/>
  <path class="cls-1" d="m132.0198,4.0361h12.0692v38.4915h2.7585v.9465h-14.6308v-.9465h2.7095V4.9827h-2.9065v-.9466Z"/>
  <path class="cls-1" d="m159.6063,31.1168h1.4286v-4.049c0-3.3301-.1725-5.5648-.5172-6.7044-.3449-1.1388-1.0099-1.709-1.9951-1.709-.5912,0-1.1253.1668-1.601.4996-.4766.3336-.7144.7888-.7144,1.3672s.0985,1.1659.2955,1.7615h1.2316c.2625.7362.3942,1.6219.3942,2.6555,0,1.0344-.4111,1.9283-1.2316,2.6818-.8213.7542-1.8558,1.1306-3.1036,1.1306-2.8248,0-4.2365-1.4543-4.2365-4.3645,0-4.3119,3.4313-6.4678,10.2958-6.4678,3.9078,0,6.6088.7099,8.1035,2.1296,1.4941,1.4198,2.2415,4.0226,2.2415,7.8087v10.6745c0,1.8233.4756,2.7345,1.4286,2.7345,1.116,0,1.7733-1.8052,1.9705-5.4162l.7389.0525c-.1317,3.0852-.6736,5.2059-1.6256,6.3627-.953,1.1568-2.5124,1.7354-4.6799,1.7354-3.941,0-6.207-1.2966-6.7982-3.8913-.4272,1.3328-1.0676,2.3138-1.9211,2.9448-.8545.6309-2.1022.9465-3.7439.9465-4.8607,0-7.2907-2.1207-7.2907-6.3627,0-2.4886.9275-4.1977,2.7832-5.1269,1.8551-.9285,4.7045-1.3935,8.547-1.3935Zm-1.6995,9.991c.1801.5257.525.7887,1.0344.7887.5088,0,.9852-.447,1.4286-1.3409.4434-.894.665-2.1297.665-3.7071v-4.8904h-.3449c-2.0367,0-3.0542,1.5957-3.0542,4.7851v.8414c0,1.8233.0901,2.9973.271,3.5232Z"/>
  <path class="cls-1" d="m194.0399,7.1385c-5.0908,0-7.6356,5.2412-7.6356,15.7227v4.1541c0,4.9782.6728,8.8786,2.0198,11.6999,1.3462,2.8223,3.3328,4.233,5.9606,4.233,3.6122,0,6.9289-3.7506,9.9509-11.2529h.8867l-.3449,11.7261h-.5419c-.197-.3853-.3779-.6573-.5419-.8149-.1648-.1578-.4026-.2367-.7144-.2367-.3124,0-1.5024.272-3.5714.8151s-4.171.8151-6.3055.8151c-5.3534,0-9.4998-1.5423-12.4386-4.6275-2.9396-3.0843-4.409-7.7207-4.409-13.9084s1.5349-10.9638,4.606-14.3292c3.0704-3.3653,7.2-5.048,12.3894-5.048,2.0027,0,3.9655.272,5.8868.815,1.9211.5439,3.0457.8151,3.3744.8151.3278,0,.5741-.0789.7389-.2366.164-.1578.3449-.4289.5419-.8151h.5419l.394,11.4108h-.8867c-1.4778-3.5404-2.9972-6.2485-4.5567-8.1242-1.5602-1.8749-3.342-2.8133-5.3449-2.8133Z"/>
  <path class="cls-1" d="m220.6408,31.1168h1.4286v-4.049c0-3.3301-.1725-5.5648-.5172-6.7044-.3449-1.1388-1.0099-1.709-1.9951-1.709-.5912,0-1.1253.1668-1.601.4996-.4766.3336-.7144.7888-.7144,1.3672s.0985,1.1659.2955,1.7615h1.2316c.2625.7362.3942,1.6219.3942,2.6555,0,1.0344-.4111,1.9283-1.2316,2.6818-.8213.7542-1.8558,1.1306-3.1036,1.1306-2.8248,0-4.2365-1.4543-4.2365-4.3645,0-4.3119,3.4313-6.4678,10.2958-6.4678,3.9078,0,6.6088.7099,8.1035,2.1296,1.4941,1.4198,2.2415,4.0226,2.2415,7.8087v10.6745c0,1.8233.4756,2.7345,1.4286,2.7345,1.116,0,1.7733-1.8052,1.9705-5.4162l.7389.0525c-.1317,3.0852-.6736,5.2059-1.6256,6.3627-.953,1.1568-2.5124,1.7354-4.6799,1.7354-3.941,0-6.207-1.2966-6.7982-3.8913-.4272,1.3328-1.0676,2.3138-1.9211,2.9448-.8545.6309-2.1022.9465-3.7439.9465-4.8607,0-7.2907-2.1207-7.2907-6.3627,0-2.4886.9275-4.1977,2.7832-5.1269,1.8551-.9285,4.7045-1.3935,8.547-1.3935Zm-1.6995,9.991c.1801.5257.525.7887,1.0344.7887.5088,0,.9852-.447,1.4286-1.3409.4434-.894.665-2.1297.665-3.7071v-4.8904h-.3449c-2.0367,0-3.0542,1.5957-3.0542,4.7851v.8414c0,1.8233.0901,2.9973.271,3.5232Z"/>
  <path class="cls-1" d="m232.4142,19.3906v-.9465h14.7293v.9465h-3.1036l5.9114,17.4579,5.3202-17.4579h-3.3004v-.9465h6.6503v.9465l-1.6353.0391-7.448,24.1254-5.9908-.081-9.1135-24.0835h-2.0197Z"/>
  <path class="cls-1" d="m269.459,31.1168h1.4286v-4.049c0-3.3301-.1725-5.5648-.5172-6.7044-.3449-1.1388-1.0099-1.709-1.9951-1.709-.5912,0-1.1253.1668-1.601.4996-.4766.3336-.7144.7888-.7144,1.3672s.0985,1.1659.2955,1.7615h1.2316c.2625.7362.3942,1.6219.3942,2.6555,0,1.0344-.4111,1.9283-1.2316,2.6818-.8213.7542-1.8558,1.1306-3.1036,1.1306-2.8248,0-4.2365-1.4543-4.2365-4.3645,0-4.3119,3.4313-6.4678,10.2958-6.4678,3.9078,0,6.6088.7099,8.1035,2.1296,1.4941,1.4198,2.2415,4.0226,2.2415,7.8087v10.6745c0,1.8233.4756,2.7345,1.4286,2.7345,1.116,0,1.7733-1.8052,1.9705-5.4162l.7389.0525c-.1317,3.0852-.6736,5.2059-1.6256,6.3627-.953,1.1568-2.5124,1.7354-4.6799,1.7354-3.941,0-6.207-1.2966-6.7982-3.8913-.4272,1.3328-1.0676,2.3138-1.9211,2.9448-.8545.6309-2.1022.9465-3.7439.9465-4.8607,0-7.2907-2.1207-7.2907-6.3627,0-2.4886.9275-4.1977,2.7832-5.1269,1.8551-.9285,4.7045-1.3935,8.547-1.3935Zm-1.6995,9.991c.1801.5257.525.7887,1.0344.7887.5088,0,.9852-.447,1.4286-1.3409.4434-.894.665-2.1297.665-3.7071v-4.8904h-.3449c-2.0367,0-3.0542,1.5957-3.0542,4.7851v.8414c0,1.8233.0901,2.9973.271,3.5232Z"/>
</svg>