<?xml version="1.0" encoding="UTF-8"?>
<svg id="Layer_1" data-name="Layer 1" xmlns="http://www.w3.org/2000/svg" viewBox="0 0 242.1147 38.4604">
  <defs>
    <style>
      .cls-1 {
        fill: #fff;
      }

      .cls-2 {
        fill: orange;
      }
    </style>
  </defs>
  <path class="cls-1" d="m12.1484,37.9951H2.4814c-1.1372.0518-2.4814-1.4473-2.4814-3.2051,0-2.4814,1.4473-3.1538,1.499-7.2896v-12.7173c-.0518-4.1875-1.499-4.8594-1.499-7.3408,0-1.7578,1.3442-3.4639,2.4814-3.4121h9.5122c9.0469,0,10.2876,9.874,10.2876,16.4912,0,11.1147-1.8096,17.4736-10.1328,17.4736Zm-2.5845-27.4512c-.3623,1.0342-.7241,2.3267-.7241,4.498v12.1484c0,2.1714.3618,3.4639.7241,4.4976h1.3955c4.1875,0,3.4121-21.144,0-21.144h-1.3955Z"/>
  <path class="cls-1" d="m35.9829,35.5654c-.9307,1.7061-2.585,2.895-5.4282,2.895-5.6865,0-6.979-4.6528-6.979-8.0649,0-6.3584,6.8237-9.3569,11.5283-9.3569v-.6719c0-1.189-.4653-2.0161-1.7061-2.0161-2.6367,0-2.6367,3.2051-5.6348,3.2051-2.0166,0-3.1538-1.8096-3.1538-4.1875,0-3.2051,3.5674-3.6704,5.0664-3.6704h8.0649c2.0674,0,4.6523,3.7222,4.6523,5.4282,0,0,.0518,5.8418,0,8.478-.0518,3.8257,2.0161,3.8257,1.9648,7.186-.0518,2.0161-1.2925,3.2051-2.4302,3.2051-1.6543-.0518-1.5508,0-3.2051,0-1.1372,0-2.0679-.9307-2.7397-2.4297Zm-.8789-8.7886c-1.7578.1035-2.5332.7236-3.1533,2.0161-.3623.8271-.1553,2.9468.8784,2.9468,1.2407,0,2.1196-2.688,2.2231-4.6011,0-.1035.0518-.2583.0518-.3618Z"/>
  <path class="cls-1" d="m50.3564,36.0308c-.6201-1.9131-4.2905-13.5444-4.2905-13.5444-1.0342-3.3086-2.4302-3.7227-2.4302-5.2734,0-2.1196,4.1357-3.5151,5.1699-3.5151h.9307c1.9126,0,2.3262,1.8608,2.7397,3.1533.8271,2.585,1.2925,4.1357,3.2568,9.5122.207.5171.6206,1.3442,1.1372,1.3442.4653,0,.9824-.5688,1.4995-2.3267.3618-1.1372.3618-2.5327,0-3.877-.2588-.9824-1.1377-3.3086-1.1377-4.6528,0-1.8608,1.3442-3.7222,3.9292-3.6704,2.3262,0,4.0322,1.2925,3.6187,4.6011-.0518.3101-.5166,2.2231-.6719,2.7397-.7236,2.8433-3.2568,12.6143-4.1875,15.5093-.3618,1.2407-2.1196,1.9644-4.5493,1.9644-2.895,0-4.5493-.4653-5.0146-1.9644Z"/>
  <path class="cls-1" d="m74.5005,16.8511c0-1.2925-.8271-3.1533-2.7397-3.1533h-.9307c-1.0337,0-5.1694,1.3955-5.1694,3.5151,0,1.5508,1.499,2.2749,1.499,4.084v6.1006c-.0518,4.1875-1.499,4.8594-1.499,7.3926,0,1.7061,1.2925,3.2051,2.4814,3.2051h5.4282c1.1372,0,2.4297-1.499,2.4297-3.2051,0-2.585-1.4995-3.2051-1.4995-7.7031v-10.2358Z"/>
  <path class="cls-2" d="m68.561,12.0952c3.4444,0,6.3531-2.6795,6.3531-6.048,0-3.2911-2.9087-6.0472-6.3531-6.0472-3.5211,0-6.4304,2.7561-6.4304,6.0472,0,3.3685,2.9094,6.048,6.4304,6.048Z"/>
  <path class="cls-1" d="m90.3203,36.5479c-1.2407,1.189-2.7402,1.9126-4.4976,1.9126-6.6172,0-8.7886-6.4624-8.7886-13.3379,0-6.8237,4.4976-11.9937,9.7188-11.9937.8271,0,1.6025.1035,2.2749.2588v-1.8096c-.0518-1.8096-1.5508-2.4814-1.5508-4.084,0-2.1196,4.187-3.5156,5.1694-3.5156h.9824c1.8608,0,2.688,1.8613,2.688,3.2051v19.9033c0,4.498,2.0679,4.2393,1.9644,7.7031,0,2.0161-1.2925,3.2051-2.4297,3.2051-1.6543-.0518-1.5508,0-3.2051,0-1.0337,0-1.8096-.5688-2.3262-1.4473Zm-1.2925-15.6646c-.3105-.7754-.6724-1.2925-1.1377-1.2925-2.688,0-3.7217,11.4253-.6201,11.4253.8271,0,1.396-.8271,1.7578-2.2749v-7.8579Z"/>
  <path class="cls-1" d="m128.8374,37.9951h-14.3198c-1.189,0-2.4814-1.499-2.4814-3.2051,0-2.5332,1.4473-3.2051,1.499-7.3926v-12.8208c-.0518-4.1875-1.499-4.8599-1.499-7.3413,0-1.8091,1.3442-3.2568,2.4814-3.2568.7754.0518,4.5493.0518,5.3765,0,1.1372,0,2.4814,1.4478,2.4814,3.2568,0,2.5332-1.4995,3.2056-1.4995,7.6514v12.2002c0,2.2231.3618,3.5156.7241,4.5493h1.9644c2.6362,0,3.3604-1.499,4.9629-1.499,2.0679,0,3.4634,3.8257,3.4634,4.8076v1.2925c0,1.8613-1.8608,1.7578-3.1533,1.7578Z"/>
  <path class="cls-1" d="m145.4336,35.5654c-.9307,1.7061-2.585,2.895-5.4282,2.895-5.6865,0-6.979-4.6528-6.979-8.0649,0-6.3584,6.8237-9.3569,11.5283-9.3569v-.6719c0-1.189-.4653-2.0161-1.7061-2.0161-2.6367,0-2.6367,3.2051-5.6348,3.2051-2.0161,0-3.1538-1.8096-3.1538-4.1875,0-3.2051,3.5674-3.6704,5.0664-3.6704h8.0645c2.0684,0,4.6528,3.7222,4.6528,5.4282,0,0,.0518,5.8418,0,8.478-.0518,3.8257,2.0161,3.8257,1.9644,7.186-.0513,2.0161-1.292,3.2051-2.4297,3.2051-1.6543-.0518-1.5508,0-3.2051,0-1.1372,0-2.0679-.9307-2.7397-2.4297Zm-.8789-8.7886c-1.7578.1035-2.5332.7236-3.1538,2.0161-.3618.8271-.1548,2.9468.8789,2.9468,1.2407,0,2.1196-2.688,2.2231-4.6011,0-.1035.0518-.2583.0518-.3618Z"/>
  <path class="cls-1" d="m168.5439,29.8789c2.3779,0,4.2388-2.4297,5.0659-3.3604.5688-.6206,1.2412-.9307,1.9131-.9307,1.9126,0,3.7222,2.3262,3.0498,4.084-2.1191,5.4282-6.5137,8.7886-11.166,8.7886-9.4609,0-12.2524-10.2358-12.2524-17.4736,0-12.0454,5.0664-17.4736,12.5107-17.4736,6.6689,0,9.4087,4.9116,9.4604,8.9956,0,2.4297-1.4473,5.3247-4.9629,5.3247-2.895,0-3.7222-2.0679-3.4639-3.1021.5171-2.3262.7754-4.1357-1.0337-4.1357-2.1196,0-3.7222,5.3765-3.7222,10.3911,0,2.895.6201,8.8921,4.6011,8.8921Z"/>
  <path class="cls-1" d="m192.4302,35.5654c-.9307,1.7061-2.585,2.895-5.4282,2.895-5.6865,0-6.979-4.6528-6.979-8.0649,0-6.3584,6.8237-9.3569,11.5283-9.3569v-.6719c0-1.189-.4653-2.0161-1.7061-2.0161-2.6367,0-2.6367,3.2051-5.6348,3.2051-2.0166,0-3.1538-1.8096-3.1538-4.1875,0-3.2051,3.5674-3.6704,5.0664-3.6704h8.0649c2.0674,0,4.6523,3.7222,4.6523,5.4282,0,0,.0518,5.8418,0,8.478-.0518,3.8257,2.0161,3.8257,1.9648,7.186-.0518,2.0161-1.2925,3.2051-2.4302,3.2051-1.6543-.0518-1.5508,0-3.2051,0-1.1372,0-2.0679-.9307-2.7397-2.4297Zm-.8789-8.7886c-1.7578.1035-2.5332.7236-3.1533,2.0161-.3623.8271-.1553,2.9468.8784,2.9468,1.2407,0,2.1196-2.688,2.2231-4.6011,0-.1035.0518-.2583.0518-.3618Z"/>
  <path class="cls-1" d="m206.8032,36.0308c-.6201-1.9131-4.291-13.5444-4.291-13.5444-1.0337-3.3086-2.4297-3.7227-2.4297-5.2734,0-2.1196,4.1357-3.5151,5.1699-3.5151h.9307c1.9126,0,2.3262,1.8608,2.7397,3.1533.8271,2.585,1.2925,4.1357,3.2568,9.5122.207.5171.6206,1.3442,1.1372,1.3442.4653,0,.9824-.5688,1.4995-2.3267.3618-1.1372.3618-2.5327,0-3.877-.2588-.9824-1.1372-3.3086-1.1372-4.6528,0-1.8608,1.3438-3.7222,3.9287-3.6704,2.3262,0,4.0322,1.2925,3.6187,4.6011-.0518.3101-.5171,2.2231-.6719,2.7397-.7236,2.8433-3.2568,12.6143-4.1875,15.5093-.3618,1.2407-2.1196,1.9644-4.5493,1.9644-2.895,0-4.5493-.4653-5.0146-1.9644Z"/>
  <path class="cls-1" d="m233.7393,35.5654c-.9307,1.7061-2.585,2.895-5.4282,2.895-5.6865,0-6.979-4.6528-6.979-8.0649,0-6.3584,6.8237-9.3569,11.5283-9.3569v-.6719c0-1.189-.4653-2.0161-1.7061-2.0161-2.6367,0-2.6367,3.2051-5.6348,3.2051-2.0161,0-3.1538-1.8096-3.1538-4.1875,0-3.2051,3.5674-3.6704,5.0664-3.6704h8.0645c2.0684,0,4.6528,3.7222,4.6528,5.4282,0,0,.0518,5.8418,0,8.478-.0518,3.8257,2.0161,3.8257,1.9644,7.186-.0513,2.0161-1.292,3.2051-2.4297,3.2051-1.6543-.0518-1.5508,0-3.2051,0-1.1372,0-2.0679-.9307-2.7397-2.4297Zm-.8789-8.7886c-1.7578.1035-2.5332.7236-3.1538,2.0161-.3618.8271-.1548,2.9468.8789,2.9468,1.2407,0,2.1196-2.688,2.2231-4.6011,0-.1035.0518-.2583.0518-.3618Z"/>
</svg>