<?xml version="1.0" encoding="UTF-8"?>
<svg id="Layer_1" data-name="Layer 1" xmlns="http://www.w3.org/2000/svg" viewBox="0 0 284.1883 39.4191">
  <defs>
    <style>
      .cls-1 {
        fill: #fff;
      }

      .cls-2 {
        fill: orange;
      }
    </style>
  </defs>
  <path class="cls-1" d="m16.2564,38.9454l-.5419-3.3158c-1.1169,2.5268-3.383,3.7895-6.7982,3.7895-2.8248,0-5.017-.9785-6.5764-2.9369-1.5602-1.9576-2.3399-4.879-2.3399-8.7631,0-7.8632,3.2512-11.7947,9.7538-11.7947,2.8895,0,4.7946.7741,5.7144,2.321V4.2718h-3.005v-.8527h12.3154v34.6736h2.4138v.8526h-10.9361Zm-6.207-3.1974c.361,1.0895,1.026,1.6343,1.9951,1.6343.9683,0,1.8057-.4101,2.5124-1.2316.7058-.8209,1.0591-2.0368,1.0591-3.6474v-10.3263c0-1.3574-.2794-2.5105-.8374-3.4578-.5589-.9474-1.3794-1.4211-2.4631-1.4211s-1.8227.695-2.2168,2.0842c-.3941,1.39-.5912,3.8213-.5912,7.2947v2.4633c0,3.3156.1802,5.5182.542,6.6077Z"/>
  <path class="cls-1" d="m40.296,27.8138h1.4286v-3.6474c0-2.9998-.1724-5.0129-.5173-6.0394-.3448-1.0258-1.0098-1.5395-1.9951-1.5395-.5911,0-1.1253.1503-1.601.45-.4764.3005-.7143.7105-.7143,1.2316s.0986,1.0503.2956,1.5868h1.2315c.2625.6632.3941,1.461.3941,2.3921,0,.9318-.411,1.7371-1.2315,2.4158-.8213.6794-1.8558,1.0184-3.1035,1.0184-2.8249,0-4.2366-1.3101-4.2366-3.9316,0-3.8842,3.4314-5.8263,10.2957-5.8263,3.9078,0,6.6088.6395,8.1036,1.9184,1.494,1.2789,2.2414,3.6236,2.2414,7.0342v9.6157c0,1.6424.4756,2.4633,1.4285,2.4633,1.1161,0,1.7735-1.6262,1.9705-4.879l.739.0473c-.1316,2.7792-.6735,4.6896-1.6256,5.7316-.953,1.0421-2.5124,1.5632-4.6799,1.5632-3.9409,0-6.207-1.168-6.7981-3.5053-.4272,1.2006-1.0676,2.0843-1.9212,2.6527-.8543.5683-2.102.8526-3.7439.8526-4.8607,0-7.2907-1.9103-7.2907-5.7316,0-2.2418.9275-3.7814,2.7833-4.6184,1.855-.8364,4.7044-1.2553,8.5469-1.2553Zm-1.6995,9c.1801.4736.525.7105,1.0345.7105.5088,0,.9852-.4027,1.4286-1.2079.4434-.8053.665-1.9185.665-3.3394v-4.4053h-.3449c-2.0367,0-3.0542,1.4374-3.0542,4.3105v.7579c0,1.6424.09,2.7.2709,3.1738Z"/>
  <path class="cls-1" d="m51.4218,17.2507v-.8526h14.7293v.8526h-3.1035l5.9114,15.7263,5.3203-15.7263h-3.3006v-.8526h6.6503v.8526l-1.6628.0352-7.448,21.7324-5.9632-.0729-9.1134-21.6947h-2.0197Z"/>
  <polygon class="cls-1" points="90.6412 38.0927 90.6412 16.3981 78.5721 16.3981 78.5721 17.2507 81.4785 17.2507 81.4785 38.0927 78.7692 38.0927 78.7692 38.9454 93.3999 38.9454 93.3999 38.0927 90.6412 38.0927"/>
  <path class="cls-2" d="m82.5082,13.1731c2.3154,0,4.0193-.6131,5.112-1.8414,1.0916-1.2273,1.6384-2.8684,1.6384-4.9222s-.5683-3.6352-1.704-4.7452c-1.1366-1.1088-2.7966-1.6643-4.9809-1.6643s-3.8125.6141-4.8825,1.8414c-1.0712,1.2283-1.6057,2.7864-1.6057,4.6743,0,1.8889.4915,3.4702,1.4745,4.7451.9831,1.2749,2.6318,1.9123,4.9481,1.9123Z"/>
  <path class="cls-1" d="m111.1335,38.9454l-.5419-3.3158c-1.1169,2.5268-3.383,3.7895-6.7982,3.7895-2.8248,0-5.017-.9785-6.5764-2.9369-1.5602-1.9576-2.3399-4.879-2.3399-8.7631,0-7.8632,3.2512-11.7947,9.7538-11.7947,2.8895,0,4.7946.7741,5.7144,2.321V4.2718h-3.005v-.8527h12.3154v34.6736h2.4138v.8526h-10.9361Zm-6.207-3.1974c.361,1.0895,1.026,1.6343,1.9951,1.6343.9683,0,1.8057-.4101,2.5124-1.2316.7058-.8209,1.0591-2.0368,1.0591-3.6474v-10.3263c0-1.3574-.2794-2.5105-.8374-3.4578-.5589-.9474-1.3794-1.4211-2.4631-1.4211s-1.8227.695-2.2168,2.0842c-.3941,1.39-.5912,3.8213-.5912,7.2947v2.4633c0,3.3156.1802,5.5182.542,6.6077Z"/>
  <path class="cls-1" d="m132.0198,3.4191h12.0692v34.6736h2.7585v.8526h-14.6308v-.8526h2.7095V4.2718h-2.9065v-.8527Z"/>
  <path class="cls-1" d="m159.6063,27.8138h1.4286v-3.6474c0-2.9998-.1725-5.0129-.5172-6.0394-.3449-1.0258-1.0099-1.5395-1.9951-1.5395-.5912,0-1.1253.1503-1.601.45-.4766.3005-.7144.7105-.7144,1.2316s.0985,1.0503.2955,1.5868h1.2316c.2625.6632.3942,1.461.3942,2.3921,0,.9318-.4111,1.7371-1.2316,2.4158-.8213.6794-1.8558,1.0184-3.1036,1.0184-2.8248,0-4.2365-1.3101-4.2365-3.9316,0-3.8842,3.4313-5.8263,10.2958-5.8263,3.9078,0,6.6088.6395,8.1035,1.9184,1.4941,1.2789,2.2415,3.6236,2.2415,7.0342v9.6157c0,1.6424.4756,2.4633,1.4286,2.4633,1.116,0,1.7733-1.6262,1.9705-4.879l.7389.0473c-.1317,2.7792-.6736,4.6896-1.6256,5.7316-.953,1.0421-2.5124,1.5632-4.6799,1.5632-3.941,0-6.207-1.168-6.7982-3.5053-.4272,1.2006-1.0676,2.0843-1.9211,2.6527-.8545.5683-2.1022.8526-3.7439.8526-4.8607,0-7.2907-1.9103-7.2907-5.7316,0-2.2418.9275-3.7814,2.7832-4.6184,1.8551-.8364,4.7045-1.2553,8.547-1.2553Zm-1.6995,9c.1801.4736.525.7105,1.0344.7105.5088,0,.9852-.4027,1.4286-1.2079.4434-.8053.665-1.9185.665-3.3394v-4.4053h-.3449c-2.0367,0-3.0542,1.4374-3.0542,4.3105v.7579c0,1.6424.0901,2.7.271,3.1738Z"/>
  <path class="cls-1" d="m194.0399,6.2138c-5.0908,0-7.6356,4.7213-7.6356,14.1632v3.7421c0,4.4844.6728,7.9979,2.0198,10.5394,1.3462,2.5423,3.3328,3.8131,5.9606,3.8131,3.6122,0,6.9289-3.3786,9.9509-10.1367h.8867l-.3449,10.563h-.5419c-.197-.3471-.3779-.5921-.5419-.7341-.1648-.1422-.4026-.2132-.7144-.2132-.3124,0-1.5024.245-3.5714.7343s-4.171.7343-6.3055.7343c-5.3534,0-9.4998-1.3893-12.4386-4.1685-2.9396-2.7784-4.409-6.9549-4.409-12.5289s1.5349-9.8763,4.606-12.9079c3.0704-3.0315,7.2-4.5473,12.3894-4.5473,2.0027,0,3.9655.245,5.8868.7342,1.9211.49,3.0457.7343,3.3744.7343.3278,0,.5741-.0711.7389-.2132.164-.1422.3449-.3864.5419-.7343h.5419l.394,10.2789h-.8867c-1.4778-3.1892-2.9972-5.6287-4.5567-7.3184-1.5602-1.6889-3.342-2.5342-5.3449-2.5342Z"/>
  <path class="cls-1" d="m220.6408,27.8138h1.4286v-3.6474c0-2.9998-.1725-5.0129-.5172-6.0394-.3449-1.0258-1.0099-1.5395-1.9951-1.5395-.5912,0-1.1253.1503-1.601.45-.4766.3005-.7144.7105-.7144,1.2316s.0985,1.0503.2955,1.5868h1.2316c.2625.6632.3942,1.461.3942,2.3921,0,.9318-.4111,1.7371-1.2316,2.4158-.8213.6794-1.8558,1.0184-3.1036,1.0184-2.8248,0-4.2365-1.3101-4.2365-3.9316,0-3.8842,3.4313-5.8263,10.2958-5.8263,3.9078,0,6.6088.6395,8.1035,1.9184,1.4941,1.2789,2.2415,3.6236,2.2415,7.0342v9.6157c0,1.6424.4756,2.4633,1.4286,2.4633,1.116,0,1.7733-1.6262,1.9705-4.879l.7389.0473c-.1317,2.7792-.6736,4.6896-1.6256,5.7316-.953,1.0421-2.5124,1.5632-4.6799,1.5632-3.941,0-6.207-1.168-6.7982-3.5053-.4272,1.2006-1.0676,2.0843-1.9211,2.6527-.8545.5683-2.1022.8526-3.7439.8526-4.8607,0-7.2907-1.9103-7.2907-5.7316,0-2.2418.9275-3.7814,2.7832-4.6184,1.8551-.8364,4.7045-1.2553,8.547-1.2553Zm-1.6995,9c.1801.4736.525.7105,1.0344.7105.5088,0,.9852-.4027,1.4286-1.2079.4434-.8053.665-1.9185.665-3.3394v-4.4053h-.3449c-2.0367,0-3.0542,1.4374-3.0542,4.3105v.7579c0,1.6424.0901,2.7.271,3.1738Z"/>
  <path class="cls-1" d="m232.4142,17.2507v-.8526h14.7293v.8526h-3.1036l5.9114,15.7263,5.3202-15.7263h-3.3004v-.8526h6.6503v.8526l-1.6353.0352-7.448,21.7324-5.9908-.0729-9.1135-21.6947h-2.0197Z"/>
  <path class="cls-1" d="m269.459,27.8138h1.4286v-3.6474c0-2.9998-.1725-5.0129-.5172-6.0394-.3449-1.0258-1.0099-1.5395-1.9951-1.5395-.5912,0-1.1253.1503-1.601.45-.4766.3005-.7144.7105-.7144,1.2316s.0985,1.0503.2955,1.5868h1.2316c.2625.6632.3942,1.461.3942,2.3921,0,.9318-.4111,1.7371-1.2316,2.4158-.8213.6794-1.8558,1.0184-3.1036,1.0184-2.8248,0-4.2365-1.3101-4.2365-3.9316,0-3.8842,3.4313-5.8263,10.2958-5.8263,3.9078,0,6.6088.6395,8.1035,1.9184,1.4941,1.2789,2.2415,3.6236,2.2415,7.0342v9.6157c0,1.6424.4756,2.4633,1.4286,2.4633,1.116,0,1.7733-1.6262,1.9705-4.879l.7389.0473c-.1317,2.7792-.6736,4.6896-1.6256,5.7316-.953,1.0421-2.5124,1.5632-4.6799,1.5632-3.941,0-6.207-1.168-6.7982-3.5053-.4272,1.2006-1.0676,2.0843-1.9211,2.6527-.8545.5683-2.1022.8526-3.7439.8526-4.8607,0-7.2907-1.9103-7.2907-5.7316,0-2.2418.9275-3.7814,2.7832-4.6184,1.8551-.8364,4.7045-1.2553,8.547-1.2553Zm-1.6995,9c.1801.4736.525.7105,1.0344.7105.5088,0,.9852-.4027,1.4286-1.2079.4434-.8053.665-1.9185.665-3.3394v-4.4053h-.3449c-2.0367,0-3.0542,1.4374-3.0542,4.3105v.7579c0,1.6424.0901,2.7.271,3.1738Z"/>
</svg>